<svg width="24" height="31" viewBox="0 0 24 31" fill="none" xmlns="http://www.w3.org/2000/svg">
<path d="M3.42857 5.09649V22.0667C3.42857 22.9936 4.19314 23.7678 5.13429 23.7678H18.8657C19.7914 23.7678 20.5714 23.0055 20.5714 22.0667V5.09649C20.5714 4.16955 19.8069 3.3954 18.8657 3.3954H5.13429C4.20857 3.3954 3.42857 4.15766 3.42857 5.09649ZM0 5.09649C0.00135258 3.74728 0.542338 2.45355 1.50457 1.4984C2.4668 0.543258 3.7719 0.0044892 5.13429 0H18.8657C20.2284 0.00359494 21.534 0.542077 22.4964 1.49742C23.4589 2.45276 23.9996 3.74701 24 5.09649V22.0667C23.9986 23.4159 23.4577 24.7096 22.4954 25.6648C21.5332 26.6199 20.2281 27.1587 18.8657 27.1632H5.13429C3.77163 27.1596 2.46599 26.6211 1.50357 25.6657C0.541143 24.7104 0.000448933 23.4162 0 22.0667V5.09649Z" fill="#1F4843"/>
<path fill-rule="evenodd" clip-rule="evenodd" d="M6.85714 6.79079H17.1429V13.5816H6.85714V6.79079ZM6.85714 16.977H17.1429V20.3724H6.85714V16.977ZM8.57143 30.3158V28.8609H3.42857V30.3158L6 28.8609L8.57143 30.3158ZM3.42857 25.4655H8.57143V28.8609H3.42857V25.4655Z" fill="#1F4843"/>
</svg>
