<svg width="24" height="25" viewBox="0 0 24 25" fill="none" xmlns="http://www.w3.org/2000/svg">
<path fill-rule="evenodd" clip-rule="evenodd" d="M12.0034 19.2159C11.089 19.2289 10.181 19.0599 9.33246 18.7189C8.48387 18.3779 7.71151 17.8716 7.06027 17.2296C6.40904 16.5875 5.89191 15.8223 5.53895 14.9787C5.18598 14.135 5.00422 13.2296 5.00422 12.315C5.00422 11.4005 5.18598 10.495 5.53895 9.65136C5.89191 8.80767 6.40904 8.04255 7.06027 7.40046C7.71151 6.75837 8.48387 6.25211 9.33246 5.91111C10.181 5.57011 11.089 5.40116 12.0034 5.4141C13.8338 5.4141 15.5893 6.14123 16.8836 7.43553C18.1779 8.72983 18.905 10.4853 18.905 12.3157C18.905 14.1461 18.1779 15.9016 16.8836 17.1959C15.5893 18.4902 13.8338 19.2173 12.0034 19.2173V19.2159ZM23.5493 14.9166C23.0076 14.7302 22.5375 14.3795 22.2046 13.9133C21.8717 13.447 21.6926 12.8886 21.6921 12.3157C21.6921 11.107 22.469 10.0901 23.5479 9.71483C23.7072 9.66236 23.8406 9.55143 23.9212 9.40445C24.0019 9.25746 24.0238 9.08536 23.9826 8.92285C23.7106 7.96298 23.3233 7.03962 22.8291 6.17297C22.7476 6.03567 22.6189 5.93268 22.4671 5.88318C22.3154 5.83368 22.1507 5.84105 22.004 5.90391C21.4383 6.13265 20.8136 6.17139 20.2241 6.01429C19.7612 5.8906 19.3388 5.64781 18.9989 5.31012C18.659 4.97242 18.4135 4.55159 18.2869 4.08952C18.1259 3.49751 18.1627 2.86911 18.3917 2.29996C18.4538 2.15316 18.4606 1.98885 18.4109 1.83742C18.3612 1.68599 18.2583 1.55768 18.1213 1.47623C17.2616 0.989038 16.3468 0.606424 15.3963 0.336546C15.2339 0.29488 15.0618 0.316447 14.9148 0.396884C14.7677 0.47732 14.6567 0.610616 14.6043 0.769793C14.4179 1.3115 14.0672 1.78157 13.601 2.11448C13.1347 2.44738 12.5763 2.62654 12.0034 2.62696C11.4309 2.62655 10.8728 2.44755 10.4068 2.1149C9.94084 1.78224 9.59026 1.31252 9.40392 0.771173C9.35088 0.612019 9.23964 0.478792 9.09251 0.398191C8.94539 0.31759 8.77323 0.295571 8.61055 0.336546C7.63368 0.6125 6.70785 1.00573 5.8455 1.49831C5.71112 1.57705 5.60956 1.70152 5.5594 1.84896C5.50924 1.99641 5.51382 2.15699 5.5723 2.30134C5.77825 2.80331 5.83181 3.35483 5.72629 3.88705C5.62077 4.41928 5.36084 4.90864 4.97894 5.29407C4.59705 5.67949 4.1101 5.94392 3.57887 6.05433C3.04764 6.16475 2.49565 6.11627 1.9918 5.91495C1.84533 5.85365 1.68165 5.84726 1.53084 5.89694C1.38003 5.94662 1.2522 6.04904 1.17084 6.18539C0.677957 7.05266 0.292026 7.97649 0.0214907 8.93665C-0.0194772 9.09752 0.00146491 9.26791 0.0801694 9.41408C0.158874 9.56024 0.289601 9.67152 0.44646 9.72587C0.980464 9.91691 1.44242 10.2682 1.76917 10.7318C2.09591 11.1954 2.27149 11.7486 2.27189 12.3157C2.27189 13.512 1.51026 14.5219 0.44508 14.9055C0.288624 14.9596 0.15815 15.0704 0.0794582 15.216C0.000766796 15.3616 -0.0204117 15.5315 0.0201111 15.692C0.263022 16.5487 0.597474 17.3767 1.01768 18.1618C1.10017 18.3076 1.23516 18.4165 1.39514 18.4662C1.55511 18.5159 1.72804 18.5028 1.87866 18.4295C2.69962 18.0528 3.73169 18.0652 4.78169 18.7578C4.94313 18.8641 5.09214 19.0131 5.19838 19.1718C5.92552 20.2756 5.90483 21.3518 5.47158 22.1907C5.39216 22.3374 5.37192 22.5089 5.41503 22.6701C5.45814 22.8312 5.56132 22.9698 5.70338 23.0572C6.61672 23.5929 7.59519 24.0089 8.61469 24.2949C8.77613 24.3367 8.94747 24.3153 9.09366 24.2351C9.23985 24.1548 9.34985 24.0217 9.40116 23.863C9.58597 23.3192 9.93621 22.8469 10.4028 22.5122C10.8695 22.1774 11.4291 21.997 12.0034 21.9962C13.2148 21.9962 14.2359 22.7785 14.607 23.863C14.6586 24.0215 14.7687 24.1544 14.9148 24.2346C15.0609 24.3148 15.2321 24.3364 15.3935 24.2949C16.3996 24.0119 17.3658 23.6025 18.2689 23.0765C18.4118 22.9888 18.5155 22.8494 18.5584 22.6873C18.6013 22.5252 18.5801 22.3528 18.4994 22.2059C18.0606 21.367 18.0344 20.2839 18.7629 19.1773C18.8691 19.0172 19.0181 18.8668 19.1796 18.7606C20.2448 18.0555 21.2865 18.0528 22.1116 18.4433C22.2621 18.5187 22.4359 18.5336 22.5971 18.4848C22.7583 18.436 22.8946 18.3274 22.9781 18.1811C23.4016 17.3953 23.7384 16.5658 23.9826 15.7072C24.0242 15.545 24.0026 15.3731 23.9221 15.2263C23.8417 15.0795 23.7084 14.9687 23.5493 14.9166" fill="#1F4843"/>
</svg>
