<svg width="24" height="25" viewBox="0 0 24 25" fill="none" xmlns="http://www.w3.org/2000/svg">
<path d="M4.8 24.3158L7.2 16.8158H10.8V10.7783C7.74 10.6533 5.1748 10.0908 3.1044 9.0908C1.034 8.0908 -0.000799537 6.9158 4.63499e-07 5.5658C4.63499e-07 4.1158 1.17 2.8783 3.51 1.8533C5.85 0.828296 8.68 0.315796 12 0.315796C15.34 0.315796 18.1752 0.828296 20.5056 1.8533C22.836 2.8783 24.0008 4.1158 24 5.5658C24 6.9158 22.9648 8.0908 20.8944 9.0908C18.824 10.0908 16.2592 10.6533 13.2 10.7783V16.8158H16.8L19.2 24.3158H16.8L15.36 19.8158H8.64L7.2 24.3158H4.8ZM12 7.8158C13.94 7.8158 15.77 7.6033 17.49 7.1783C19.21 6.7533 20.47 6.2158 21.27 5.5658C20.47 4.9158 19.21 4.3783 17.49 3.9533C15.77 3.5283 13.94 3.3158 12 3.3158C10.06 3.3158 8.23 3.5283 6.51 3.9533C4.79 4.3783 3.53 4.9158 2.73 5.5658C3.53 6.2158 4.79 6.7533 6.51 7.1783C8.23 7.6033 10.06 7.8158 12 7.8158Z" fill="#B7B7B7"/>
</svg>
