<svg width="523" height="159" viewBox="0 0 523 159" fill="none" xmlns="http://www.w3.org/2000/svg">
<path d="M17.0197 68.3704C17.6106 72.9015 19.679 76.3565 23.2247 78.7354C26.7705 81.1142 31.2618 82.3036 36.6986 82.3036C41.1899 82.3036 44.913 81.8505 47.8678 80.9443C50.8226 80.0381 53.7774 78.792 56.7322 77.2061C57.7959 76.5264 58.7415 76.1866 59.5688 76.1866C60.8689 76.1866 61.519 76.9796 61.519 78.5655C61.519 80.9443 60.5734 83.493 58.6824 86.2117C56.9095 88.9304 54.0729 91.3092 50.1725 93.3483C46.2722 95.274 41.0718 96.2368 34.5712 96.2368C28.1888 96.2368 22.3383 94.9908 17.0197 92.4987C11.8192 89.8933 7.68249 86.0984 4.60949 81.1142C1.5365 76.0167 0 69.7864 0 62.4233C0 55.9665 1.30011 50.2459 3.90034 45.2617C6.61876 40.2774 10.4009 36.3693 15.2468 33.5374C20.2108 30.7054 26.0023 29.2895 32.621 29.2895C39.7125 29.2895 45.4449 30.7054 49.818 33.5374C54.3093 36.2561 57.5596 39.8243 59.5688 44.2422C61.6963 48.66 62.76 53.3611 62.76 58.3453C62.76 60.0445 62.7009 61.5737 62.5827 62.9331C62.5827 64.1791 62.5236 65.2553 62.4054 66.1615C62.2872 67.6341 61.2826 68.3704 59.3915 68.3704H17.0197ZM17.0197 56.6461H45.7403C45.9767 54.7204 45.7403 52.738 45.0312 50.699C44.4402 48.5468 43.1401 46.7343 41.1309 45.2617C39.1216 43.7891 36.285 43.0528 32.621 43.0528C28.1297 43.0528 24.5249 44.2988 21.8064 46.7909C19.2062 49.1698 17.6106 52.4549 17.0197 56.6461Z" fill="#FFFDFD"/>
<path d="M117.326 86.7456C115.002 89.7963 112.038 92.1691 108.435 93.864C104.832 95.4459 100.997 96.2368 96.9293 96.2368C90.4209 96.2368 84.9003 94.7115 80.3676 91.6607C75.9512 88.6099 72.5807 84.5422 70.2563 79.4576C68.0481 74.373 66.944 68.78 66.944 62.6784C66.944 56.3509 68.1643 50.7013 70.605 45.7297C73.0456 40.6451 76.5323 36.6339 81.065 33.6961C85.7139 30.7584 91.1182 29.2895 97.278 29.2895C102.392 29.2895 106.692 30.1934 110.179 32.0013C113.782 33.8091 116.629 35.956 118.721 38.4418C119.651 35.843 121.162 33.9786 123.254 32.8487C125.462 31.6058 128.077 30.9843 131.099 30.9843H131.97C133.249 30.9843 133.888 31.6623 133.888 33.0182V92.8471C133.888 94.09 133.249 94.7115 131.97 94.7115H119.07C117.907 94.7115 117.326 94.09 117.326 92.8471V86.7456ZM100.59 80.983C102.799 80.983 105.181 80.531 107.738 79.6271C110.411 78.6102 112.677 76.8023 114.537 74.2035C116.397 71.6047 117.326 67.763 117.326 62.6784C117.326 57.5938 116.397 53.8086 114.537 51.3228C112.677 48.724 110.469 47.0291 107.912 46.2382C105.355 45.3342 102.973 44.8823 100.765 44.8823C98.4402 44.8823 95.9414 45.3907 93.2683 46.4077C90.7114 47.4246 88.5032 49.2324 86.6436 51.8312C84.9003 54.43 84.0286 58.0458 84.0286 62.6784C84.0286 67.537 84.9584 71.3223 86.818 74.034C88.7937 76.6329 91.0601 78.4407 93.617 79.4576C96.1739 80.4746 98.4983 80.983 100.59 80.983Z" fill="#FFFDFD"/>
<path d="M145.755 76.0167C148.437 78.169 151.236 79.8682 154.152 81.1142C157.184 82.3603 160.8 82.9833 164.998 82.9833C172.113 82.9833 175.67 80.7744 175.67 76.3565C175.67 74.4308 174.562 72.9016 172.346 71.7688C170.247 70.636 167.622 69.5598 164.473 68.5403C161.441 67.5208 158.351 66.2748 155.202 64.8022C152.053 63.3295 149.37 61.4038 147.154 59.025C145.055 56.5329 144.005 53.1912 144.005 48.9999C144.005 44.3555 145.172 40.6173 147.504 37.7853C149.953 34.8401 153.102 32.6878 156.951 31.3285C160.916 29.9691 165.115 29.2895 169.547 29.2895C175.028 29.2895 179.577 30.1391 183.192 31.8382C186.224 33.0843 188.207 34.6135 189.14 36.426C190.073 38.1252 190.073 40.5606 189.14 43.7324L188.615 45.6015C188.265 46.5077 187.799 46.9609 187.216 46.9609C186.866 46.9609 186.574 46.9042 186.341 46.7909C186.108 46.5644 185.758 46.3945 185.291 46.2812C179.81 43.6758 174.445 42.3731 169.197 42.3731C166.864 42.3731 164.882 42.8262 163.249 43.7324C161.616 44.6387 160.8 46.0546 160.8 47.9804C160.8 49.9061 161.849 51.492 163.949 52.738C166.165 53.8708 168.789 54.947 171.821 55.9665C174.97 56.986 178.119 58.232 181.268 59.7046C184.417 61.1773 187.041 63.103 189.14 65.4818C191.356 67.8607 192.464 71.0325 192.464 74.9972C192.464 81.3408 190.131 86.4949 185.466 90.4597C180.801 94.3111 174.62 96.2368 166.923 96.2368C162.024 96.2368 157.709 95.4439 153.977 93.858C150.362 92.1588 147.504 89.9499 145.405 87.2312C143.306 84.5126 142.256 81.6806 142.256 78.7354C142.256 76.4698 142.956 75.337 144.355 75.337C144.822 75.337 145.288 75.5636 145.755 76.0167Z" fill="#FFFDFD"/>
<path fill-rule="evenodd" clip-rule="evenodd" d="M234.827 100.303V116.691V147.424V153.508C234.827 157.169 231.189 159 223.913 159H222.66C221.706 159 221.229 158.768 221.229 158.304V147.424V116.691V100.323C215.47 99.1407 210.93 96.3204 207.61 91.8626C203.091 85.6685 200.832 77.199 200.832 66.4541V30.996C200.832 29.8583 201.273 29.2895 202.155 29.2895H202.981C209.704 29.2895 213.066 33.6506 213.066 42.3729V67.971C213.066 74.6708 214.389 79.664 217.034 82.9507C218.258 84.411 219.657 85.5469 221.229 86.3584V36.4569C221.229 35.2194 221.706 34.6006 222.66 34.6006H223.913C231.189 34.6006 234.827 39.482 234.827 49.2449V86.4311C236.283 85.7213 237.571 84.7507 238.691 83.5195C241.447 80.4857 242.825 75.4925 242.825 68.5399V30.996C242.825 29.8583 243.265 29.2895 244.147 29.2895H244.974C251.807 29.2895 255.224 33.6506 255.224 42.3729V67.4022C255.224 77.7679 252.909 85.9845 248.28 92.0522C244.992 96.3754 240.508 99.1257 234.827 100.303Z" fill="#FFFDFD"/>
<path d="M313.843 37.9837V2.04398C313.843 0.681327 314.481 0 315.756 0H316.626C321.146 0 324.566 1.13554 326.885 3.40662C329.319 5.56414 330.536 9.19786 330.536 14.3078V92.8302C330.536 94.0793 329.956 94.7039 328.797 94.7039H315.756C314.481 94.7039 313.843 94.0793 313.843 92.8302V86.6983C308.975 93.0573 302.193 96.2368 293.499 96.2368C287.008 96.2368 281.502 94.7039 276.981 91.6379C272.576 88.572 269.214 84.484 266.896 79.3741C264.693 74.2642 263.592 68.6433 263.592 62.5114C263.592 56.1524 264.809 50.4747 267.244 45.4783C269.678 40.3684 273.213 36.3372 277.85 33.3848C282.487 30.4324 288.051 28.9562 294.543 28.9562C298.948 28.9562 302.773 29.7511 306.019 31.3409C309.381 32.9306 311.989 35.1449 313.843 37.9837ZM297.325 80.9071C299.527 80.9071 301.904 80.4529 304.454 79.5444C307.004 78.5225 309.207 76.7056 311.061 74.0939C312.916 71.4821 313.843 67.6213 313.843 62.5114C313.843 57.4015 312.916 53.5974 311.061 51.0992C309.207 48.4875 307.004 46.7842 304.454 45.9893C301.904 45.0809 299.585 44.6266 297.499 44.6266C295.18 44.6266 292.688 45.1376 290.022 46.1596C287.356 47.1816 285.095 48.9985 283.241 51.6102C281.502 54.1084 280.632 57.7421 280.632 62.5114C280.632 67.3942 281.56 71.1982 283.414 73.9235C285.385 76.5353 287.645 78.3521 290.196 79.3741C292.862 80.3961 295.238 80.9071 297.325 80.9071Z" fill="#FFFDFD"/>
<path d="M354.789 68.3704C355.341 72.9015 357.271 76.3565 360.58 78.7354C363.89 81.1142 368.082 82.3036 373.156 82.3036C377.348 82.3036 380.823 81.8505 383.581 80.9443C386.338 80.0381 389.096 78.792 391.854 77.2061C392.847 76.5264 393.729 76.1866 394.502 76.1866C395.715 76.1866 396.322 76.9796 396.322 78.5655C396.322 80.9443 395.439 83.493 393.674 86.2117C392.02 88.9304 389.372 91.3092 385.732 93.3483C382.091 95.274 377.238 96.2368 371.17 96.2368C365.214 96.2368 359.753 94.9908 354.789 92.4987C349.935 89.8933 346.074 86.0984 343.206 81.1142C340.338 76.0167 338.904 69.7864 338.904 62.4233C338.904 55.9665 340.117 50.2459 342.544 45.2617C345.081 40.2774 348.611 36.3693 353.134 33.5374C357.767 30.7054 363.173 29.2895 369.35 29.2895C375.969 29.2895 381.319 30.7054 385.401 33.5374C389.593 36.2561 392.626 39.8243 394.502 44.2422C396.487 48.66 397.48 53.3611 397.48 58.3453C397.48 60.0445 397.425 61.5737 397.315 62.9331C397.315 64.1791 397.259 65.2553 397.149 66.1615C397.039 67.6341 396.101 68.3704 394.336 68.3704H354.789ZM354.789 56.6461H381.595C381.816 54.7204 381.595 52.738 380.933 50.699C380.382 48.5468 379.168 46.7343 377.293 45.2617C375.417 43.7891 372.77 43.0528 369.35 43.0528C365.158 43.0528 361.794 44.2988 359.257 46.7909C356.83 49.1698 355.341 52.4549 354.789 56.6461Z" fill="#FFFDFD"/>
<path d="M409.347 76.0167C412.029 78.169 414.828 79.8682 417.744 81.1142C420.776 82.3603 424.392 82.9833 428.59 82.9833C435.705 82.9833 439.262 80.7744 439.262 76.3565C439.262 74.4308 438.154 72.9016 435.938 71.7688C433.839 70.636 431.214 69.5598 428.065 68.5403C425.033 67.5208 421.943 66.2748 418.794 64.8022C415.645 63.3295 412.962 61.4038 410.746 59.025C408.647 56.5329 407.597 53.1912 407.597 48.9999C407.597 44.3555 408.764 40.6173 411.096 37.7853C413.545 34.8401 416.694 32.6878 420.543 31.3285C424.508 29.9691 428.707 29.2895 433.139 29.2895C438.62 29.2895 443.169 30.1391 446.784 31.8382C449.816 33.0843 451.799 34.6135 452.732 36.426C453.665 38.1252 453.665 40.5606 452.732 43.7324L452.207 45.6015C451.857 46.5077 451.391 46.9609 450.808 46.9609C450.458 46.9609 450.166 46.9042 449.933 46.7909C449.7 46.5644 449.35 46.3945 448.883 46.2812C443.402 43.6758 438.037 42.3731 432.789 42.3731C430.456 42.3731 428.474 42.8262 426.841 43.7324C425.208 44.6387 424.392 46.0546 424.392 47.9804C424.392 49.9061 425.441 51.492 427.541 52.738C429.757 53.8708 432.381 54.947 435.413 55.9665C438.562 56.986 441.711 58.232 444.86 59.7046C448.009 61.1773 450.633 63.103 452.732 65.4818C454.948 67.8607 456.056 71.0325 456.056 74.9972C456.056 81.3408 453.723 86.4949 449.058 90.4597C444.393 94.3111 438.212 96.2368 430.515 96.2368C425.616 96.2368 421.301 95.4439 417.569 93.858C413.954 92.1588 411.096 89.9499 408.997 87.2312C406.898 84.5126 405.848 81.6806 405.848 78.7354C405.848 76.4698 406.548 75.337 407.947 75.337C408.414 75.337 408.88 75.5636 409.347 76.0167Z" fill="#FFFDFD"/>
<path d="M480.763 74.947V94.3329C480.763 95.6022 480.183 96.2368 479.025 96.2368H465.988C464.945 96.2368 464.424 95.6022 464.424 94.3329V2.07706C464.424 0.692356 464.945 0 465.988 0H466.857C471.377 0 474.795 1.15392 477.113 3.46177C479.546 5.65421 480.763 9.34675 480.763 14.5394V54.6958L501.099 33.406C502.142 31.9059 503.359 31.1558 504.749 31.1558H519.35C519.929 31.1558 520.277 31.4443 520.393 32.0213C520.509 32.4828 520.451 32.8867 520.219 33.2329L499.709 54.8689L522.826 94.3329C523.058 94.7944 523.058 95.256 522.826 95.7176C522.594 96.0637 522.189 96.2368 521.609 96.2368H507.357C505.503 96.2368 504.286 95.5445 503.706 94.1598L488.237 67.1581L480.763 74.947Z" fill="#FFFDFD"/>
</svg>
