<svg width="185" height="56" viewBox="0 0 185 56" fill="none" xmlns="http://www.w3.org/2000/svg">
<path d="M5.9962 24.0802C6.2044 25.676 6.9331 26.8929 8.18231 27.7307C9.43152 28.5685 11.0138 28.9874 12.9293 28.9874C14.5116 28.9874 15.8233 28.8279 16.8643 28.5087C17.9053 28.1895 18.9463 27.7507 19.9873 27.1921C20.3621 26.9527 20.6952 26.833 20.9867 26.833C21.4447 26.833 21.6737 27.1123 21.6737 27.6709C21.6737 28.5087 21.3406 29.4064 20.6744 30.3639C20.0498 31.3214 19.0504 32.1592 17.6763 32.8774C16.3022 33.5556 14.47 33.8947 12.1798 33.8947C9.9312 33.8947 7.87001 33.4559 5.9962 32.5782C4.16402 31.6605 2.70662 30.324 1.62397 28.5685C0.541323 26.7732 0 24.5789 0 21.9856C0 19.7115 0.458043 17.6967 1.37413 15.9412C2.33185 14.1858 3.66434 12.8093 5.37159 11.8119C7.12048 10.8145 9.16085 10.3158 11.4927 10.3158C13.9911 10.3158 16.0107 10.8145 17.5514 11.8119C19.1337 12.7694 20.2788 14.0262 20.9867 15.5822C21.7362 17.1381 22.111 18.7938 22.111 20.5493C22.111 21.1478 22.0902 21.6864 22.0485 22.1651C22.0485 22.604 22.0277 22.983 21.9861 23.3022C21.9444 23.8208 21.5905 24.0802 20.9242 24.0802H5.9962ZM5.9962 19.9509H16.1148C16.1981 19.2726 16.1148 18.5744 15.8649 17.8563C15.6567 17.0982 15.1987 16.4599 14.4908 15.9412C13.7829 15.4226 12.7836 15.1632 11.4927 15.1632C9.91038 15.1632 8.64035 15.6021 7.68262 16.4798C6.76654 17.3177 6.2044 18.4747 5.9962 19.9509Z" fill="#1F4843"/>
<path d="M41.3352 30.5519C40.5162 31.6264 39.4721 32.4621 38.2028 33.059C36.9334 33.6162 35.5822 33.8947 34.1491 33.8947C31.8561 33.8947 29.9112 33.3575 28.3143 32.283C26.7583 31.2085 25.5709 29.7759 24.7519 27.9851C23.974 26.1943 23.585 24.2244 23.585 22.0754C23.585 19.8469 24.0149 17.8571 24.8748 16.1061C25.7346 14.3153 26.963 12.9025 28.5599 11.8678C30.1978 10.8331 32.1018 10.3158 34.2719 10.3158C36.0736 10.3158 37.5886 10.6342 38.817 11.2709C40.0863 11.9076 41.0895 12.6637 41.8265 13.5392C42.1541 12.6239 42.6864 11.9673 43.4234 11.5694C44.2014 11.1316 45.1227 10.9127 46.1873 10.9127H46.4944C46.9448 10.9127 47.17 11.1515 47.17 11.6291V32.7009C47.17 33.1386 46.9448 33.3575 46.4944 33.3575H41.9493C41.5399 33.3575 41.3352 33.1386 41.3352 32.7009V30.5519ZM35.4389 28.5223C36.2169 28.5223 37.0563 28.3631 37.9571 28.0448C38.8989 27.6866 39.6973 27.0499 40.3524 26.1346C41.0076 25.2193 41.3352 23.8662 41.3352 22.0754C41.3352 20.2846 41.0076 18.9515 40.3524 18.076C39.6973 17.1607 38.9193 16.5637 38.0185 16.2851C37.1177 15.9668 36.2783 15.8076 35.5003 15.8076C34.6814 15.8076 33.801 15.9867 32.8593 16.3448C31.9585 16.703 31.1805 17.3397 30.5253 18.255C29.9112 19.1703 29.6041 20.4438 29.6041 22.0754C29.6041 23.7866 29.9316 25.1198 30.5868 26.0749C31.2829 26.9902 32.0813 27.6269 32.9821 27.9851C33.8829 28.3432 34.7019 28.5223 35.4389 28.5223Z" fill="#1F4843"/>
<path d="M51.3508 26.7732C52.2959 27.5312 53.282 28.1297 54.3092 28.5685C55.3775 29.0074 56.6513 29.2268 58.1305 29.2268C60.6369 29.2268 61.8901 28.4488 61.8901 26.8929C61.8901 26.2146 61.4998 25.676 60.7191 25.2771C59.9795 24.8781 59.055 24.4991 57.9456 24.14C56.8773 23.7809 55.7884 23.3421 54.679 22.8234C53.5696 22.3048 52.6246 21.6265 51.8439 20.7887C51.1043 19.9109 50.7345 18.734 50.7345 17.2578C50.7345 15.6221 51.1454 14.3055 51.9672 13.308C52.83 12.2707 53.9394 11.5127 55.2954 11.0339C56.6924 10.5552 58.1716 10.3158 59.733 10.3158C61.6641 10.3158 63.2666 10.615 64.5404 11.2135C65.6087 11.6523 66.3072 12.1909 66.6359 12.8293C66.9646 13.4277 66.9646 14.2855 66.6359 15.4026L66.451 16.0609C66.3277 16.3801 66.1634 16.5397 65.9579 16.5397C65.8347 16.5397 65.7319 16.5197 65.6498 16.4798C65.5676 16.4 65.4443 16.3402 65.28 16.3003C63.3488 15.3827 61.4587 14.9239 59.6097 14.9239C58.7879 14.9239 58.0894 15.0834 57.5142 15.4026C56.9389 15.7218 56.6513 16.2205 56.6513 16.8988C56.6513 17.577 57.0211 18.1356 57.7607 18.5744C58.5414 18.9734 59.4659 19.3524 60.5342 19.7115C61.6436 20.0705 62.753 20.5094 63.8624 21.0281C64.9718 21.5467 65.8963 22.225 66.6359 23.0628C67.4166 23.9006 67.8069 25.0177 67.8069 26.4141C67.8069 28.6483 66.9852 30.4636 65.3416 31.86C63.698 33.2165 61.5203 33.8947 58.8085 33.8947C57.0827 33.8947 55.5624 33.6155 54.2476 33.0569C52.9738 32.4585 51.9672 31.6805 51.2276 30.723C50.488 29.7654 50.1182 28.768 50.1182 27.7307C50.1182 26.9328 50.3647 26.5338 50.8578 26.5338C51.0221 26.5338 51.1865 26.6136 51.3508 26.7732Z" fill="#1F4843"/>
<path fill-rule="evenodd" clip-rule="evenodd" d="M82.7319 35.3269V41.0988V51.9228V54.0658C82.7319 55.3553 81.4502 56 78.8867 56H78.4455C78.1093 56 77.9412 55.9183 77.9412 55.7548V51.9228V41.0988V35.3341C75.9122 34.9175 74.3129 33.9242 73.1432 32.3541C71.5512 30.1726 70.7551 27.1896 70.7551 23.4052V10.9168C70.7551 10.5161 70.9104 10.3158 71.2211 10.3158H71.5123C73.881 10.3158 75.0653 11.8518 75.0653 14.9238V23.9395C75.0653 26.2992 75.5313 28.0578 76.4632 29.2153C76.8945 29.7297 77.3872 30.1297 77.9412 30.4155L77.9412 12.8402C77.9412 12.4043 78.1093 12.1864 78.4455 12.1864H78.8867C81.4502 12.1864 82.7319 13.9056 82.7319 17.3441V30.4412C83.2449 30.1911 83.6987 29.8493 84.0934 29.4157C85.0642 28.3472 85.5495 26.5885 85.5495 24.1398V10.9168C85.5495 10.5161 85.7049 10.3158 86.0155 10.3158H86.3067C88.7142 10.3158 89.918 11.8518 89.918 14.9238V23.7391C89.918 27.3899 89.1025 30.2839 87.4716 32.4209C86.3132 33.9435 84.7333 34.9122 82.7319 35.3269Z" fill="#1F4843"/>
<path d="M110.57 13.3779V0.719891C110.57 0.239964 110.795 0 111.244 0H111.55C113.143 0 114.348 0.39994 115.165 1.19982C116.022 1.9597 116.451 3.2395 116.451 5.03922V32.6949C116.451 33.1349 116.247 33.3548 115.838 33.3548H111.244C110.795 33.3548 110.57 33.1349 110.57 32.6949V30.5353C108.855 32.7749 106.466 33.8947 103.403 33.8947C101.116 33.8947 99.1757 33.3548 97.583 32.275C96.0311 31.1952 94.8467 29.7554 94.0299 27.9557C93.2539 26.1559 92.866 24.1763 92.866 22.0166C92.866 19.7769 93.2948 17.7772 94.1524 16.0175C95.0101 14.2178 96.2557 12.798 97.8893 11.7582C99.5229 10.7183 101.483 10.1984 103.77 10.1984C105.322 10.1984 106.67 10.4784 107.813 11.0383C108.998 11.5982 109.917 12.3781 110.57 13.3779ZM104.75 28.4956C105.526 28.4956 106.364 28.3356 107.262 28.0157C108.161 27.6557 108.936 27.0158 109.59 26.096C110.243 25.1761 110.57 23.8163 110.57 22.0166C110.57 20.2169 110.243 18.8771 109.59 17.9972C108.936 17.0774 108.161 16.4774 107.262 16.1975C106.364 15.8775 105.547 15.7176 104.812 15.7176C103.995 15.7176 103.117 15.8975 102.177 16.2575C101.238 16.6174 100.442 17.2573 99.7883 18.1772C99.1757 19.057 98.8694 20.3368 98.8694 22.0166C98.8694 23.7363 99.1961 25.0761 99.8496 26.036C100.544 26.9558 101.34 27.5957 102.239 27.9557C103.178 28.3156 104.015 28.4956 104.75 28.4956Z" fill="#1F4843"/>
<path d="M124.996 24.0802C125.19 25.676 125.87 26.8929 127.036 27.7307C128.202 28.5685 129.679 28.9874 131.467 28.9874C132.943 28.9874 134.168 28.8279 135.139 28.5087C136.111 28.1895 137.082 27.7507 138.054 27.1921C138.404 26.9527 138.715 26.833 138.987 26.833C139.414 26.833 139.628 27.1123 139.628 27.6709C139.628 28.5087 139.317 29.4064 138.695 30.3639C138.112 31.3214 137.18 32.1592 135.897 32.8774C134.615 33.5556 132.904 33.8947 130.767 33.8947C128.668 33.8947 126.745 33.4559 124.996 32.5782C123.286 31.6605 121.925 30.324 120.915 28.5685C119.904 26.7732 119.399 24.5789 119.399 21.9856C119.399 19.7115 119.827 17.6967 120.682 15.9412C121.576 14.1858 122.819 12.8093 124.413 11.8119C126.045 10.8145 127.949 10.3158 130.126 10.3158C132.458 10.3158 134.342 10.8145 135.78 11.8119C137.257 12.7694 138.326 14.0262 138.987 15.5822C139.686 17.1381 140.036 18.7938 140.036 20.5493C140.036 21.1478 140.017 21.6864 139.978 22.1651C139.978 22.604 139.958 22.983 139.919 23.3022C139.881 23.8208 139.55 24.0802 138.928 24.0802H124.996ZM124.996 19.9509H134.44C134.517 19.2726 134.44 18.5744 134.206 17.8563C134.012 17.0982 133.585 16.4599 132.924 15.9412C132.263 15.4226 131.33 15.1632 130.126 15.1632C128.649 15.1632 127.463 15.6021 126.57 16.4798C125.715 17.3177 125.19 18.4747 124.996 19.9509Z" fill="#1F4843"/>
<path d="M144.217 26.7732C145.162 27.5312 146.148 28.1297 147.175 28.5685C148.244 29.0074 149.518 29.2268 150.997 29.2268C153.503 29.2268 154.756 28.4488 154.756 26.8929C154.756 26.2146 154.366 25.676 153.585 25.2771C152.846 24.8781 151.921 24.4991 150.812 24.14C149.743 23.7809 148.655 23.3421 147.545 22.8234C146.436 22.3048 145.491 21.6265 144.71 20.7887C143.971 19.9109 143.601 18.734 143.601 17.2578C143.601 15.6221 144.012 14.3055 144.833 13.308C145.696 12.2707 146.806 11.5127 148.162 11.0339C149.559 10.5552 151.038 10.3158 152.599 10.3158C154.53 10.3158 156.133 10.615 157.407 11.2135C158.475 11.6523 159.173 12.1909 159.502 12.8293C159.831 13.4277 159.831 14.2855 159.502 15.4026L159.317 16.0609C159.194 16.3801 159.03 16.5397 158.824 16.5397C158.701 16.5397 158.598 16.5197 158.516 16.4798C158.434 16.4 158.311 16.3402 158.146 16.3003C156.215 15.3827 154.325 14.9239 152.476 14.9239C151.654 14.9239 150.956 15.0834 150.38 15.4026C149.805 15.7218 149.518 16.2205 149.518 16.8988C149.518 17.577 149.887 18.1356 150.627 18.5744C151.408 18.9734 152.332 19.3524 153.4 19.7115C154.51 20.0705 155.619 20.5094 156.729 21.0281C157.838 21.5467 158.763 22.225 159.502 23.0628C160.283 23.9006 160.673 25.0177 160.673 26.4141C160.673 28.6483 159.851 30.4636 158.208 31.86C156.564 33.2165 154.387 33.8947 151.675 33.8947C149.949 33.8947 148.429 33.6155 147.114 33.0569C145.84 32.4585 144.833 31.6805 144.094 30.723C143.354 29.7654 142.984 28.768 142.984 27.7307C142.984 26.9328 143.231 26.5338 143.724 26.5338C143.888 26.5338 144.053 26.6136 144.217 26.7732Z" fill="#1F4843"/>
<path d="M169.377 26.3964V33.2242C169.377 33.6712 169.173 33.8947 168.765 33.8947H164.172C163.805 33.8947 163.621 33.6712 163.621 33.2242V0.731544C163.621 0.243849 163.805 0 164.172 0H164.478C166.071 0 167.275 0.406414 168.091 1.21924C168.949 1.99142 169.377 3.29194 169.377 5.12079V19.2639L176.542 11.7656C176.91 11.2373 177.338 10.9731 177.828 10.9731H182.972C183.176 10.9731 183.299 11.0747 183.339 11.2779C183.38 11.4405 183.36 11.5827 183.278 11.7047L176.052 19.3249L184.197 33.2242C184.278 33.3867 184.278 33.5493 184.197 33.7118C184.115 33.8338 183.972 33.8947 183.768 33.8947H178.747C178.093 33.8947 177.665 33.6509 177.461 33.1632L172.011 23.6532L169.377 26.3964Z" fill="#1F4843"/>
</svg>
