<svg width="24" height="24" viewBox="0 0 24 24" fill="none" xmlns="http://www.w3.org/2000/svg">
<path fill-rule="evenodd" clip-rule="evenodd" d="M3 0H21C22.6569 0 24 1.34315 24 3V21C24 22.6569 22.6569 24 21 24H3C1.34315 24 0 22.6569 0 21V3C0 1.34315 1.34315 0 3 0ZM6 6H18C18.8284 6 19.5 6.67157 19.5 7.5C19.5 8.32843 18.8284 9 18 9H6C5.17157 9 4.5 8.32843 4.5 7.5C4.5 6.67157 5.17157 6 6 6ZM18 10.5H6C5.17157 10.5 4.5 11.1716 4.5 12C4.5 12.8284 5.17157 13.5 6 13.5H18C18.8284 13.5 19.5 12.8284 19.5 12C19.5 11.1716 18.8284 10.5 18 10.5ZM6 15H10.5C11.3284 15 12 15.6716 12 16.5C12 17.3284 11.3284 18 10.5 18H6C5.17157 18 4.5 17.3284 4.5 16.5C4.5 15.6716 5.17157 15 6 15Z" fill="#1F4843"/>
</svg>
